<?xml version="1.0" encoding="UTF-8" standalone="no"?>
<svg
   version="1.1"
   viewBox="0 0 1516.7136 1592.1956"
   width="947.94598"
   height="995.12225"
   id="svg1"
   xmlns="http://www.w3.org/2000/svg"
   xmlns:svg="http://www.w3.org/2000/svg">
  <defs
     id="defs1">
    <clipPath
       clipPathUnits="userSpaceOnUse"
       id="clipPath30">
      <path
         id="path32"
         style="fill:#ff0000;fill-opacity:1;fill-rule:nonzero;stroke:none;stroke-width:1.6"
         d="M 505.23033,413.23082 V 1711.4345 H 1527.0752 c -3.8433,-3.6329 -7.755,-7.2717 -10.058,-12.2019 -6.804,-14.5611 -16.8652,-29.8948 -15.3297,-46.2855 0.3424,-3.6576 1.0267,-7.2044 1.9703,-10.6707 -7.8454,-5.3829 -15.0168,-11.5371 -20.9154,-18.3907 -5.1533,-5.9882 -9.1751,-13.1065 -13.7633,-19.6597 -7.4197,-21.1781 -14.919,-33.5167 -10.0268,-57.7461 5.7596,-28.5252 16.1391,-42.5638 37.32,-57.2949 11.6711,-8.1174 25.1306,-10.1657 38.1323,-13.183 12.0734,-2.359 24.3946,-2.8933 36.4785,-5.1671 0.9707,-6.8695 1.9481,-13.7378 2.9173,-20.6076 -16.4842,-42.2956 -30.2089,-92.4546 -42.2638,-60.862 -0.6309,2.6144 -1.2627,5.2282 -1.894,7.8424 -0.4707,1.9983 -2.6627,11.5453 -3.5167,14.4518 -0.128,0.4371 -0.2765,1.5228 -0.5789,1.2154 -0.338,-0.3437 0.1931,-1.005 0.2895,-1.5084 1.8596,-9.7039 3.7586,-16.9129 5.7001,-22.0012 4.627,-19.1732 9.2095,-38.3612 13.2696,-57.7027 4.7297,-23.2115 9.3222,-46.4622 14.5689,-69.5326 6.0748,-26.3623 12.1028,-52.795 20.507,-78.356 3.1581,-9.7304 6.4195,-19.4156 9.6924,-29.0972 -2.6716,-21.5331 -5.699,-43.015 -10.2984,-64.1489 -4.8833,-23.8879 -9.9631,-47.7821 -16.5819,-71.1378 -6.4703,-20.96692 -15.0829,-40.94625 -21.9431,-61.74619 -7.4206,-24.02607 -13.5496,-48.5294 -18.1438,-73.46404 -3.0112,-19.52146 -5.416,-39.19219 -6.5462,-58.9613 -11.4221,-9.04017 -22.6112,-18.45281 -33.4287,-28.4271 -5.9239,-6.29045 -12.1281,-12.25751 -17.7714,-18.8724 -22.2823,-26.11933 -38.3289,-58.36842 -53.7066,-89.9236 -3.2562,-7.49949 -6.677,-14.90935 -9.7687,-22.49809 -15.949,-39.14819 -28.1937,-80.26251 -36.6422,-122.2974 -8.3005,-42.86922 -16.6627,-86.10478 -19.0505,-129.96916 z M 1559.4336,1524.9526 c -0.3428,-0.019 -0.6009,0.057 -0.4557,0.2675 0.8889,1.2903 2.2279,2.0949 3.447,2.9709 0.2826,0.203 0.5672,0.4009 0.8529,0.5962 0.027,-0.219 0.053,-0.4358 0.08,-0.6548 -0.9452,-1.0252 -1.9108,-2.0221 -2.9668,-2.8919 -0.1909,-0.1574 -0.6163,-0.2694 -0.9582,-0.2879 z" />
    </clipPath>
    <clipPath
       clipPathUnits="userSpaceOnUse"
       id="clipPath57">
      <path
         id="path58"
         style="fill:#ff0000;fill-opacity:1;fill-rule:nonzero;stroke:none;stroke-width:1.6"
         d="m 250.97005,231.9375 v 1592.1969 h 943.10625 c -1.2598,-5.5022 -2.2649,-11.0698 -3.1937,-16.6313 -1.929,-11.8865 -2.6087,-23.8832 -2.4438,-35.9093 0.8068,-13.0063 1.578,-26.015 2.8594,-38.9844 1.4338,-16.8254 3.3035,-33.5921 5.7719,-50.2969 2.5616,-17.7155 5.8899,-35.3 9.2781,-52.8719 0.5104,-3.0455 1.0728,-6.084 1.6531,-9.1187 0.096,-4.4965 0.2338,-8.9918 0.4188,-13.4875 0.9873,-18.8075 2.4999,-37.5849 4.1218,-56.3469 1.0658,-12.2334 2.3544,-24.4481 3.275,-36.6937 0.8517,-14.0838 0.5678,-18.0926 13.65,-33.225 3.9677,-4.5895 9.9345,-7.2092 15.6063,-9.3625 11.6671,-4.4295 27.9902,-5.5496 40.4125,-6.9188 5.9919,-0.4691 11.9753,-1.0511 17.975,-1.4062 0.7786,-0.046 1.5667,-0.093 2.3656,-0.1374 2.5825,-0.9142 5.1985,-1.75 7.8469,-2.5032 12.6167,-3.5883 21.2481,-4.4519 34.0062,-6.3156 4.6954,-0.5299 9.3921,-1.0606 14.0875,-1.5906 26.4284,-2.9828 47.8646,0.3799 64.0344,7.65 2.4457,0.023 4.8887,0.052 7.3344,0.078 0.1046,-0.087 0.2108,-0.1756 0.3156,-0.2624 14.7176,-12.0396 29.2755,-24.2763 44.3656,-35.8532 17.9031,-13.7108 36.0839,-27.2384 55.95,-38.0156 20.7699,-11.0004 41.7136,-21.8388 63.8719,-29.8219 22.576,-8.1209 45.4204,-15.6201 69.3344,-18.6749 2.1373,-0.1992 4.1255,-0.3999 6.0156,-0.5907 0.4846,-23.7356 12.6055,-37.0773 26.1656,-38.7844 1.8016,-23.9937 2.8701,-48.0533 4.525,-72.053 0.4211,-9.6883 1.1474,-19.3387 2.1188,-28.9595 -4.5651,-9.842 -8.3626,-21.7461 -10.4594,-31.7812 -1.0035,-4.8025 -1.5459,-9.6895 -2.3187,-14.5344 -2.6056,-21.0312 -0.6544,-42.1093 2.7593,-62.9032 2.6856,-14.6655 6.0444,-29.1861 8.6063,-43.8749 0.3047,-1.8732 0.5908,-3.748 0.8594,-5.6251 -8.7661,-6.2201 -16.1649,-18.0581 -19.0594,-36.0405 -0.4061,-2.52305 -0.8977,-5.02769 -1.4563,-7.52192 -1.7405,-7.88581 -3.6151,-15.74113 -5.35,-23.62813 -4.4801,-20.36701 -0.7316,-35.03877 6.8188,-43.29376 -2.4127,-5.72056 -4.1446,-12.53891 -4.925,-20.48125 -0.2742,-2.79144 -0.548,-5.58208 -0.575,-8.39062 -0.1245,-13.17082 2.6521,-18.00698 7.1062,-18.02499 5.2449,-0.0211 12.8137,6.63733 20.6969,14.2375 -0.187,-2.45392 -0.3816,-4.90613 -0.5781,-7.35939 -13.8313,-3.1004 -26.2719,-18.51645 -26.2719,-46.24686 v -6.55626 c 0,-4.0317 0.2642,-7.80456 0.7563,-11.31562 -4.8052,4.66684 -10.0276,2.96826 -16.0125,-11.64062 -0.8,-1.95266 -1.7307,-3.85501 -2.4,-5.85626 -1.9244,-5.75419 -2.2847,-11.87348 -2.3157,-17.88748 0.085,-8.26248 0.2095,-16.52522 0.4657,-24.78439 0.3539,-9.50477 0.7628,-19.02305 1.9656,-28.46561 0.9179,-7.76128 1.9813,-15.5002 2.9156,-23.2594 1.2012,-9.4708 2.2546,-18.94988 2.7844,-28.48748 1.1871,-15.88493 2.078,-31.78929 2.375,-47.71876 0.2685,-17.08774 0.2714,-34.17891 0.7812,-51.26251 0.5089,-17.70045 1.3743,-35.39018 1.7813,-53.09374 0.4352,-19.51095 0.8549,-39.04056 0.022,-58.54687 -0.2041,-5.28877 -0.4423,-10.5752 -0.7219,-15.85937 -6.4987,-0.4909 -14.6554,-1.37908 -19.7031,-1.89063 -30.1734,-3.48985 -60.2852,-7.48915 -90.4282,-11.22813 -38.5402,-4.15112 -76.888,-9.74828 -115.1062,-16.18436 -4.7991,-0.95244 -9.7179,-1.42608 -14.3969,-2.85626 -17.7437,-5.4235 -31.2007,-13.17669 -45.075,-25.28125 -7.202,-6.28333 -11.0623,-11.05901 -17.2437,-18.05 -10.548,-13.11852 -19.7585,-27.30596 -28.1844,-41.86563 -6.3356,-12.44021 -11.3096,-25.76695 -12.9656,-39.70625 -0.3511,-2.95477 -0.4129,-5.93784 -0.6188,-8.90625 -0.3044,-13.87514 1.8813,-27.73396 7.2125,-40.59375 1.0508,-2.53465 2.3335,-4.96651 3.5,-7.45 2.4368,-3.45784 4.6365,-7.09627 7.3094,-10.375 0.142,-0.17426 0.2862,-0.34714 0.4312,-0.5188 z m 969.87185,1559.1031 v 0.01 z m 0,0.016 c -0.4487,0.7296 -0.868,1.4775 -1.2593,2.2406 0.042,-0.044 0.2055,-0.269 0.2781,-0.3594 l 0.9375,-1.7812 c 0.014,-0.033 0.029,-0.066 0.044,-0.1 z" />
    </clipPath>
    <clipPath
       clipPathUnits="userSpaceOnUse"
       id="clipPath69">
      <path
         id="path70"
         style="fill:#ff0000;fill-opacity:1;fill-rule:nonzero;stroke:none;stroke-width:1.6"
         d="M 505.23177,413.23022 V 1711.4352 H 1537.0714 c -0.057,-0.2595 -0.1052,-0.5208 -0.1469,-0.7838 -4.5002,-28.4177 -4.9325,-46.5128 1.2982,-59.4339 -3.8707,-3.7799 -7.3817,-8.3497 -10.6899,-13.8633 -3.3238,-5.5394 -4.6601,-12.4235 -6.9898,-18.6355 -0.533,-3.5563 -1.3141,-7.0727 -1.5984,-10.669 -0.7035,-8.8996 -0.3647,-19.9499 2.1211,-28.3644 4.6535,-15.7521 9.6034,-24.1504 20.5914,-34.4353 2.2962,-2.1493 4.8842,-3.7856 7.4974,-5.3793 -3.774,-20.4674 -7.4622,-41.0612 -8.7307,-61.957 -5.5543,-12.6759 -6.3449,-30.8015 -6.5038,-44.1848 -0.066,-5.5119 0.4,-11.0149 0.6005,-16.5222 0.8966,-18.7985 3.6976,-37.2795 7.1518,-55.6017 0.209,-9.3074 0.377,-17.3193 0.3412,-27.5191 -0.077,-21.9403 -1.3958,-43.8447 -1.5444,-65.784 -0.2652,-28.9403 -0.2502,-57.9034 1.7043,-86.7762 1.442,-20.5908 3.3922,-41.1189 4.7671,-61.7162 1.2202,-16.681 2.065,-33.3808 2.7195,-50.1071 0.5851,-14.5542 1.5751,-29.0924 1.7345,-43.6647 -0.2412,-16.394 -1.0271,-32.78892 -3.7109,-48.91603 -0.3711,-2.22248 -0.7369,-4.44688 -1.1146,-6.6678 -0.2092,-1.23049 -0.6978,-2.43222 -0.648,-3.68611 0.033,-0.83189 2.7301,3.13866 2.8793,3.25832 -0.013,-0.043 -0.1555,-0.28359 -0.4774,-0.80433 -10.5189,-17.01606 -0.3795,2.43753 -12.2278,-22.30882 -1.3622,-5.25261 -3.0841,-10.39363 -4.0867,-15.75886 -3.533,-18.90833 0.227,-38.18083 2.7043,-56.86714 3.2131,-20.99795 7.2295,-41.80499 10.3248,-62.82793 0.8485,-7.20297 1.3347,-10.61526 1.8598,-17.73896 0.8314,-11.27751 0.737,-22.6259 0.8921,-33.93329 -0.095,-4.28654 -0.085,-7.74314 -0.4752,-11.96003 -0.9897,-10.70488 -3.6032,-21.11732 -5.3395,-31.6586 -2.682,-14.10548 -5.6467,-28.34877 -5.8321,-42.90906 -0.1054,-8.28204 1.1612,-21.29204 3.8124,-29.3199 0.1579,-0.4779 0.3213,-0.95356 0.4882,-1.4268 -0.3067,-0.41928 -0.6126,-0.84294 -0.9158,-1.27054 -5.2757,-7.43874 -7.8206,-17.08367 -11.7311,-25.62607 -1.1176,-5.44328 -2.4216,-10.83757 -3.3523,-16.33009 -0.6135,-3.6204 -0.8694,-7.31497 -1.2744,-10.97638 -1.069,-9.66498 -1.9573,-19.35162 -2.7,-29.05604 -1.441,-6.03331 -2.385,-13.00933 -2.9506,-22.98251 -0.3831,-6.75591 -0.225,-13.32658 0.3305,-19.79848 -0.5096,-13.31158 -0.4615,-26.63308 0.9741,-39.90433 1.9887,-16.89465 4.3797,-33.71746 7.2814,-50.42732 0.7159,-4.30534 1.4551,-8.60587 2.1752,-12.91038 z" />
    </clipPath>
  </defs>
  <g
     id="g39"
     transform="matrix(1.0612401,0,0,1,-266.3395,-231.9375)"
     clip-path="url(#clipPath57)">
    <path
       id="path31-1"
       style="fill:#599e2c;fill-opacity:1;fill-rule:evenodd;stroke:#fff6d5;stroke-width:1.2243;stroke-dasharray:none"
       d="m 1008,414 -18,2 -13,4 -16,8 -17,12 -12,11 -10,13 -11,23 -5,16 -2,13 -1,18 -1,506 -9,3 -21,3 -30,2 h -17 l -22,-2 -23,-5 -16,-6 -15,-8 -10,-8 -8,-7 -10,-13 -8,-14 -7,-19 -9,-40 -3,-14 -1,-10 -1,-23 v -46 l 1,-20 3,-15 1,-4 v -8 l -6,-28 -5,-13 -8,-14 -12,-13 -13,-9 -16,-7 -19,-5 -7,-1 h -15 l -16,3 -14,5 -15,8 -13,10 -9,12 -8,15 -6,18 -4,21 -3,24 -2,24 v 64 l 4,34 8,46 10,40 12,34 12,24 16,27 8,11 9,11 12,14 13,13 11,9 12,10 15,10 19,11 16,8 19,8 16,6 35,9 11,3 34,3 20,1 h 78 l 5,1 1,3 v 466.9406 a 790.86011,786.33459 0 0 0 110.5781,7.725 A 790.86011,786.33459 0 0 0 1137.45,1700.8 L 1137,1699 v -301 l 1,-2 69,-1 25,-2 28,-4 28,-6 37,-11 15,-8 16,-8 18,-10 12,-8 13,-10 10,-8 12,-11 14,-15 7,-9 9,-12 11,-16 13,-25 8,-16 11,-29 5,-18 10,-48 5,-40 2,-32 v -41 l -2,-37 -3,-27 -4,-21 -9,-20 -8,-11 -7,-8 -14,-11 -14,-8 -14,-4 -6,-1 h -32 l -15,3 -10,4 -11,7 -10,8 -10,10 -10,14 -5,11 -5,21 -1,6 v 15 l 4,32 1,16 v 22 l -2,36 -4,27 -8,35 -7,19 -9,17 -9,12 -9,9 -19,11 -22,8 -16,3 -28,2 h -60 l -1,-3 -1,-690 -3,-15 -5,-15 -10,-19 -9,-12 -10,-11 -10,-8 -14,-9 -13,-6 -14,-4 -15,-2 z M 1790.8031,784.3375 1792,792 l 3.275,19.64688 a 790.86011,786.33459 0 0 0 -4.4719,-27.30938 z m 4.9438,249.3938 L 1793,1047 l -1.9,15.6875 a 790.86011,786.33459 0 0 0 4.6469,-28.9562 z"
       clip-path="url(#clipPath30)"
       transform="matrix(1.392518,0,0,1.2264928,-437.64233,-275.08087)" />
    <path
       id="path31"
       style="fill:#70cb34;fill-opacity:1;fill-rule:evenodd;stroke:#fff6d5;stroke-width:0;stroke-dasharray:none"
       d="m 1008,414 -18,2 -13,4 -16,8 -17,12 -12,11 -10,13 -11,23 -5,16 -2,13 -1,18 -1,506 -9,3 -21,3 -30,2 h -17 l -22,-2 -23,-5 -16,-6 -15,-8 -10,-8 -8,-7 -10,-13 -8,-14 -7,-19 -9,-40 -3,-14 -1,-10 -1,-23 v -46 l 1,-20 3,-15 1,-4 v -8 l -6,-28 -5,-13 -8,-14 -12,-13 -13,-9 -16,-7 -19,-5 -7,-1 h -15 l -16,3 -14,5 -15,8 -13,10 -9,12 -8,15 -6,18 -4,21 -3,24 -2,24 v 64 l 4,34 8,46 10,40 12,34 12,24 16,27 8,11 9,11 12,14 13,13 11,9 12,10 15,10 19,11 16,8 19,8 16,6 35,9 11,3 34,3 20,1 h 78 l 5,1 1,3 v 466.9406 a 790.86011,786.33459 0 0 0 110.5781,7.725 A 790.86011,786.33459 0 0 0 1137.45,1700.8 L 1137,1699 v -301 l 1,-2 69,-1 25,-2 28,-4 28,-6 37,-11 15,-8 16,-8 18,-10 12,-8 13,-10 10,-8 12,-11 14,-15 7,-9 9,-12 11,-16 13,-25 8,-16 11,-29 5,-18 10,-48 5,-40 2,-32 v -41 l -2,-37 -3,-27 -4,-21 -9,-20 -8,-11 -7,-8 -14,-11 -14,-8 -14,-4 -6,-1 h -32 l -15,3 -10,4 -11,7 -10,8 -10,10 -10,14 -5,11 -5,21 -1,6 v 15 l 4,32 1,16 v 22 l -2,36 -4,27 -8,35 -7,19 -9,17 -9,12 -9,9 -19,11 -22,8 -16,3 -28,2 h -60 l -1,-3 -1,-690 -3,-15 -5,-15 -10,-19 -9,-12 -10,-11 -10,-8 -14,-9 -13,-6 -14,-4 -15,-2 z M 1790.8031,784.3375 1792,792 l 3.275,19.64688 a 790.86011,786.33459 0 0 0 -4.4719,-27.30938 z m 4.9438,249.3938 L 1793,1047 l -1.9,15.6875 a 790.86011,786.33459 0 0 0 4.6469,-28.9562 z"
       clip-path="url(#clipPath69)"
       transform="matrix(1.392518,0,0,1.2199489,-453.64507,-262.79163)" />
    <g
       id="g44"
       transform="translate(-52.043059,7.9195959)">
      <ellipse
         style="fill:#6a6a6a;fill-opacity:0.9217;fill-rule:evenodd;stroke:#fff6d5;stroke-width:0;stroke-dasharray:none"
         id="path41-2-7"
         cx="1111.297"
         cy="639.55145"
         rx="76"
         ry="77.199997" />
      <ellipse
         style="fill:#ffffff;fill-rule:evenodd;stroke:#fff6d5;stroke-width:1.6"
         id="path41-5"
         cx="1104.8485"
         cy="638.0083"
         rx="76"
         ry="77.199997" />
      <ellipse
         style="fill:#000000;fill-rule:evenodd;stroke:#fff6d5;stroke-width:1.6"
         id="path42-1"
         cx="1070.8"
         cy="632.79999"
         rx="38.400002"
         ry="36.400002" />
      <ellipse
         style="fill:#ffffff;fill-rule:evenodd;stroke:#fff6d5;stroke-width:1.6"
         id="path44"
         cx="1052"
         cy="628.39996"
         rx="16.4"
         ry="17.6" />
    </g>
    <g
       id="g43"
       transform="translate(-42.992092,2.2627417)">
      <ellipse
         style="fill:#6a6a6a;fill-opacity:0.9217;fill-rule:evenodd;stroke:#fff6d5;stroke-width:0;stroke-dasharray:none"
         id="path41-2"
         cx="936.59216"
         cy="625.73724"
         rx="76"
         ry="77.199997" />
      <ellipse
         style="fill:#ffffff;fill-rule:evenodd;stroke:#fff6d5;stroke-width:1.6"
         id="path41"
         cx="932"
         cy="626"
         rx="76"
         ry="77.199997" />
      <ellipse
         style="fill:#000000;fill-rule:evenodd;stroke:#fff6d5;stroke-width:1.6"
         id="path42"
         cx="966"
         cy="630.39996"
         rx="38.400002"
         ry="36.400002" />
      <ellipse
         style="fill:#ffffff;fill-rule:evenodd;stroke:#fff6d5;stroke-width:1.6"
         id="path45"
         cx="986.04443"
         cy="625.32916"
         rx="15.980614"
         ry="16.829142" />
    </g>
    <path
       style="fill:#6e6060;fill-opacity:0.782998;fill-rule:evenodd;stroke:#fff6d5;stroke-width:0;stroke-dasharray:none"
       d="m 874.8093,784.97169 c 0,0 4.52327,33.71301 96.74018,33.18671 86.51602,-0.49376 92.40052,-32.42665 92.40052,-32.42665"
       id="path49-9" />
    <path
       style="fill:#28220b;fill-rule:evenodd;stroke:#fff6d5;stroke-width:1.27238"
       d="m 872.95172,784.79783 c 0,0 4.52327,31.70208 96.74021,31.20717 86.51597,-0.4643 92.40047,-30.49245 92.40047,-30.49245"
       id="path49" />
  </g>
</svg>
