<?xml version="1.0" encoding="UTF-8" standalone="no"?>
<svg
   version="1.1"
   viewBox="0 0 1516.7136 1592.1956"
   width="947.94598"
   height="995.12225"
   id="svg1"
   xmlns="http://www.w3.org/2000/svg"
   xmlns:svg="http://www.w3.org/2000/svg">
  <defs
     id="defs1">
    <clipPath
       clipPathUnits="userSpaceOnUse"
       id="clipPath6">
      <path
         id="path7"
         style="fill:#ff0000;fill-opacity:1;fill-rule:nonzero;stroke:none;stroke-width:1.6"
         d="M 505.2323,413.23022 V 1711.4352 H 1796.506 v -363.4476 c -3.411,-2.8097 -6.5581,-6.696 -9.2054,-11.6731 -1.5663,6.8663 -3.1527,13.7246 -4.7733,20.5746 -10.9451,27.5171 -6.9629,26.8429 -59.1465,-4.3931 -4.8054,-2.8764 -0.9919,-12.3368 -1.3397,-18.5177 -1.6485,-29.2992 -1.9302,-58.682 -2.3384,-88.0262 -16.8402,29.3276 -52.7905,15.8893 -49.8872,-36.1593 0.285,-5.112 0.5023,-10.2298 0.8551,-15.3362 2.4798,-35.903 6.3083,-71.6795 9.744,-107.4712 4.0717,-36.7107 8.165,-73.411 13.8171,-109.86117 3.1853,-20.54166 7.6593,-47.72702 13.2068,-67.86145 2.3709,-8.60536 5.7503,-16.80366 8.6264,-25.20598 6.2832,-6.73432 10.8112,-18.33544 17.547,-23.81503 0.6232,-11.62893 1.5732,-23.23288 2.5874,-34.82471 0.052,-0.59302 1.2773,-15.72754 1.9547,-17.65187 2.1695,-6.1635 5.2389,-11.86173 7.8589,-17.79275 5.2029,1.60745 10.4622,3.02045 15.7247,4.42129 -9.6485,-28.20062 3.2153,-45.17568 19.2099,-44.48445 5.078,0.21945 10.4697,2.21945 15.5585,6.20672 V 413.23022 Z" />
    </clipPath>
    <clipPath
       clipPathUnits="userSpaceOnUse"
       id="clipPath30">
      <path
         id="path32"
         style="fill:#ff0000;fill-opacity:1;fill-rule:nonzero;stroke:none;stroke-width:1.6"
         d="M 505.23033,413.23082 V 1711.4345 H 1527.0752 c -3.8433,-3.6329 -7.755,-7.2717 -10.058,-12.2019 -6.804,-14.5611 -16.8652,-29.8948 -15.3297,-46.2855 0.3424,-3.6576 1.0267,-7.2044 1.9703,-10.6707 -7.8454,-5.3829 -15.0168,-11.5371 -20.9154,-18.3907 -5.1533,-5.9882 -9.1751,-13.1065 -13.7633,-19.6597 -7.4197,-21.1781 -14.919,-33.5167 -10.0268,-57.7461 5.7596,-28.5252 16.1391,-42.5638 37.32,-57.2949 11.6711,-8.1174 25.1306,-10.1657 38.1323,-13.183 12.0734,-2.359 24.3946,-2.8933 36.4785,-5.1671 0.9707,-6.8695 1.9481,-13.7378 2.9173,-20.6076 -16.4842,-42.2956 -30.2089,-92.4546 -42.2638,-60.862 -0.6309,2.6144 -1.2627,5.2282 -1.894,7.8424 -0.4707,1.9983 -2.6627,11.5453 -3.5167,14.4518 -0.128,0.4371 -0.2765,1.5228 -0.5789,1.2154 -0.338,-0.3437 0.1931,-1.005 0.2895,-1.5084 1.8596,-9.7039 3.7586,-16.9129 5.7001,-22.0012 4.627,-19.1732 9.2095,-38.3612 13.2696,-57.7027 4.7297,-23.2115 9.3222,-46.4622 14.5689,-69.5326 6.0748,-26.3623 12.1028,-52.795 20.507,-78.356 3.1581,-9.7304 6.4195,-19.4156 9.6924,-29.0972 -2.6716,-21.5331 -5.699,-43.015 -10.2984,-64.1489 -4.8833,-23.8879 -9.9631,-47.7821 -16.5819,-71.1378 -6.4703,-20.96692 -15.0829,-40.94625 -21.9431,-61.74619 -7.4206,-24.02607 -13.5496,-48.5294 -18.1438,-73.46404 -3.0112,-19.52146 -5.416,-39.19219 -6.5462,-58.9613 -11.4221,-9.04017 -22.6112,-18.45281 -33.4287,-28.4271 -5.9239,-6.29045 -12.1281,-12.25751 -17.7714,-18.8724 -22.2823,-26.11933 -38.3289,-58.36842 -53.7066,-89.9236 -3.2562,-7.49949 -6.677,-14.90935 -9.7687,-22.49809 -15.949,-39.14819 -28.1937,-80.26251 -36.6422,-122.2974 -8.3005,-42.86922 -16.6627,-86.10478 -19.0505,-129.96916 z M 1559.4336,1524.9526 c -0.3428,-0.019 -0.6009,0.057 -0.4557,0.2675 0.8889,1.2903 2.2279,2.0949 3.447,2.9709 0.2826,0.203 0.5672,0.4009 0.8529,0.5962 0.027,-0.219 0.053,-0.4358 0.08,-0.6548 -0.9452,-1.0252 -1.9108,-2.0221 -2.9668,-2.8919 -0.1909,-0.1574 -0.6163,-0.2694 -0.9582,-0.2879 z" />
    </clipPath>
    <clipPath
       clipPathUnits="userSpaceOnUse"
       id="clipPath56">
      <path
         id="path57"
         style="fill:#ff0000;fill-opacity:1;fill-rule:nonzero;stroke:none;stroke-width:1.6"
         d="M 250.97005,231.9375 V 1824.1344 H 1322.0919 c -2.9411,-8.0008 -6.3699,-17.0747 -10.6594,-27.4656 2.1536,-17.7352 2.5274,-35.7766 6.4625,-53.2032 2.148,-9.5122 7.1413,-18.1854 11.6157,-26.8499 13.9403,-26.9947 35.0809,-51.1088 58.6375,-70.0469 8.5129,-6.8443 18.1705,-12.1275 27.2562,-18.1907 17.8803,-9.2664 26.0542,-13.9131 45.0156,-21.9375 27.7899,-11.7605 56.6074,-20.082 85.5375,-28.4625 9.6151,-2.7764 8.9972,-2.1981 18.0813,-6.425 1.9446,-0.9049 3.8548,-1.8809 5.7531,-2.8812 4.5576,-6.7284 9.1606,-13.4255 13.8563,-20.0563 5.914,-8.3512 12.1128,-16.4981 18.1687,-24.7468 8.6362,-10.9919 12.5993,-16.0848 15.5375,-19.8125 17.4539,-40.6362 34.3164,-81.915 61.8531,-116.9438 3.2687,-3.9946 6.1115,-7.5346 8.7625,-10.8062 3.1968,-13.5238 5.5443,-27.2794 7.6157,-41.0657 4.42,-36.2587 5.5823,-72.8142 8.0937,-109.2343 1.7619,-40.5408 8.8641,-80.4401 16.9406,-120.1157 9.7581,-43.8561 23.6544,-86.6013 33.2656,-130.4906 6.8487,-33.92507 9.8669,-68.42554 12.1032,-102.90938 2.3328,-35.2 1.6944,-70.48483 1.3344,-105.73124 -0.3785,-33.8664 -0.7108,-67.73207 -0.9124,-101.6 -1.952,-42.00584 -7.0144,-83.75136 -12.5813,-125.40312 -8.1536,-55.13096 -19.0447,-109.81159 -30.1813,-164.40312 -8.1621,-40.46748 -17.3186,-80.71269 -26.175,-121.02815 -1.0574,-4.53504 -2.1145,-9.07117 -3.1719,-13.60624 -0.1613,-0.69177 -0.3191,-1.38038 -0.475,-2.06875 -1.6812,-2.21002 -3.3327,-4.44766 -4.9469,-6.7125 z" />
    </clipPath>
  </defs>
  <g
     id="g39"
     transform="translate(-250.97005,-231.9375)"
     clip-path="url(#clipPath56)">
    <path
       id="path31-1"
       style="fill:#599e2c;fill-opacity:1;fill-rule:evenodd;stroke:#fff6d5;stroke-width:1.2243;stroke-dasharray:none"
       d="m 1008,414 -18,2 -13,4 -16,8 -17,12 -12,11 -10,13 -11,23 -5,16 -2,13 -1,18 -1,506 -9,3 -21,3 -30,2 h -17 l -22,-2 -23,-5 -16,-6 -15,-8 -10,-8 -8,-7 -10,-13 -8,-14 -7,-19 -9,-40 -3,-14 -1,-10 -1,-23 v -46 l 1,-20 3,-15 1,-4 v -8 l -6,-28 -5,-13 -8,-14 -12,-13 -13,-9 -16,-7 -19,-5 -7,-1 h -15 l -16,3 -14,5 -15,8 -13,10 -9,12 -8,15 -6,18 -4,21 -3,24 -2,24 v 64 l 4,34 8,46 10,40 12,34 12,24 16,27 8,11 9,11 12,14 13,13 11,9 12,10 15,10 19,11 16,8 19,8 16,6 35,9 11,3 34,3 20,1 h 78 l 5,1 1,3 v 466.9406 a 790.86011,786.33459 0 0 0 110.5781,7.725 A 790.86011,786.33459 0 0 0 1137.45,1700.8 L 1137,1699 v -301 l 1,-2 69,-1 25,-2 28,-4 28,-6 37,-11 15,-8 16,-8 18,-10 12,-8 13,-10 10,-8 12,-11 14,-15 7,-9 9,-12 11,-16 13,-25 8,-16 11,-29 5,-18 10,-48 5,-40 2,-32 v -41 l -2,-37 -3,-27 -4,-21 -9,-20 -8,-11 -7,-8 -14,-11 -14,-8 -14,-4 -6,-1 h -32 l -15,3 -10,4 -11,7 -10,8 -10,10 -10,14 -5,11 -5,21 -1,6 v 15 l 4,32 1,16 v 22 l -2,36 -4,27 -8,35 -7,19 -9,17 -9,12 -9,9 -19,11 -22,8 -16,3 -28,2 h -60 l -1,-3 -1,-690 -3,-15 -5,-15 -10,-19 -9,-12 -10,-11 -10,-8 -14,-9 -13,-6 -14,-4 -15,-2 z M 1790.8031,784.3375 1792,792 l 3.275,19.64688 a 790.86011,786.33459 0 0 0 -4.4719,-27.30938 z m 4.9438,249.3938 L 1793,1047 l -1.9,15.6875 a 790.86011,786.33459 0 0 0 4.6469,-28.9562 z"
       clip-path="url(#clipPath30)"
       transform="matrix(1.392518,0,0,1.2264928,-437.64233,-275.08087)" />
    <path
       id="path31"
       style="fill:#70cb34;fill-opacity:1;fill-rule:evenodd;stroke:#fff6d5;stroke-width:0;stroke-dasharray:none"
       d="m 1008,414 -18,2 -13,4 -16,8 -17,12 -12,11 -10,13 -11,23 -5,16 -2,13 -1,18 -1,506 -9,3 -21,3 -30,2 h -17 l -22,-2 -23,-5 -16,-6 -15,-8 -10,-8 -8,-7 -10,-13 -8,-14 -7,-19 -9,-40 -3,-14 -1,-10 -1,-23 v -46 l 1,-20 3,-15 1,-4 v -8 l -6,-28 -5,-13 -8,-14 -12,-13 -13,-9 -16,-7 -19,-5 -7,-1 h -15 l -16,3 -14,5 -15,8 -13,10 -9,12 -8,15 -6,18 -4,21 -3,24 -2,24 v 64 l 4,34 8,46 10,40 12,34 12,24 16,27 8,11 9,11 12,14 13,13 11,9 12,10 15,10 19,11 16,8 19,8 16,6 35,9 11,3 34,3 20,1 h 78 l 5,1 1,3 v 466.9406 a 790.86011,786.33459 0 0 0 110.5781,7.725 A 790.86011,786.33459 0 0 0 1137.45,1700.8 L 1137,1699 v -301 l 1,-2 69,-1 25,-2 28,-4 28,-6 37,-11 15,-8 16,-8 18,-10 12,-8 13,-10 10,-8 12,-11 14,-15 7,-9 9,-12 11,-16 13,-25 8,-16 11,-29 5,-18 10,-48 5,-40 2,-32 v -41 l -2,-37 -3,-27 -4,-21 -9,-20 -8,-11 -7,-8 -14,-11 -14,-8 -14,-4 -6,-1 h -32 l -15,3 -10,4 -11,7 -10,8 -10,10 -10,14 -5,11 -5,21 -1,6 v 15 l 4,32 1,16 v 22 l -2,36 -4,27 -8,35 -7,19 -9,17 -9,12 -9,9 -19,11 -22,8 -16,3 -28,2 h -60 l -1,-3 -1,-690 -3,-15 -5,-15 -10,-19 -9,-12 -10,-11 -10,-8 -14,-9 -13,-6 -14,-4 -15,-2 z M 1790.8031,784.3375 1792,792 l 3.275,19.64688 a 790.86011,786.33459 0 0 0 -4.4719,-27.30938 z m 4.9438,249.3938 L 1793,1047 l -1.9,15.6875 a 790.86011,786.33459 0 0 0 4.6469,-28.9562 z"
       clip-path="url(#clipPath6)"
       transform="matrix(1.392518,0,0,1.2199489,-453.64507,-262.79163)" />
    <g
       id="g44"
       transform="translate(-52.043059,7.9195959)">
      <ellipse
         style="fill:#6a6a6a;fill-opacity:0.9217;fill-rule:evenodd;stroke:#fff6d5;stroke-width:0;stroke-dasharray:none"
         id="path41-2-7"
         cx="1111.297"
         cy="639.55145"
         rx="76"
         ry="77.199997" />
      <ellipse
         style="fill:#ffffff;fill-rule:evenodd;stroke:#fff6d5;stroke-width:1.6"
         id="path41-5"
         cx="1104.8485"
         cy="638.0083"
         rx="76"
         ry="77.199997" />
      <ellipse
         style="fill:#000000;fill-rule:evenodd;stroke:#fff6d5;stroke-width:1.6"
         id="path42-1"
         cx="1070.8"
         cy="632.79999"
         rx="38.400002"
         ry="36.400002" />
      <ellipse
         style="fill:#ffffff;fill-rule:evenodd;stroke:#fff6d5;stroke-width:1.6"
         id="path44"
         cx="1052"
         cy="628.39996"
         rx="16.4"
         ry="17.6" />
    </g>
    <g
       id="g43"
       transform="translate(-42.992092,2.2627417)">
      <ellipse
         style="fill:#6a6a6a;fill-opacity:0.9217;fill-rule:evenodd;stroke:#fff6d5;stroke-width:0;stroke-dasharray:none"
         id="path41-2"
         cx="936.59216"
         cy="625.73724"
         rx="76"
         ry="77.199997" />
      <ellipse
         style="fill:#ffffff;fill-rule:evenodd;stroke:#fff6d5;stroke-width:1.6"
         id="path41"
         cx="932"
         cy="626"
         rx="76"
         ry="77.199997" />
      <ellipse
         style="fill:#000000;fill-rule:evenodd;stroke:#fff6d5;stroke-width:1.6"
         id="path42"
         cx="966"
         cy="630.39996"
         rx="38.400002"
         ry="36.400002" />
      <ellipse
         style="fill:#ffffff;fill-rule:evenodd;stroke:#fff6d5;stroke-width:1.6"
         id="path45"
         cx="986.04443"
         cy="625.32916"
         rx="15.980614"
         ry="16.829142" />
    </g>
    <path
       style="fill:#6e6060;fill-opacity:0.782998;fill-rule:evenodd;stroke:#fff6d5;stroke-width:0;stroke-dasharray:none"
       d="m 874.8093,784.97169 c 0,0 4.52327,33.71301 96.74018,33.18671 86.51602,-0.49376 92.40052,-32.42665 92.40052,-32.42665"
       id="path49-9" />
    <path
       style="fill:#28220b;fill-rule:evenodd;stroke:#fff6d5;stroke-width:1.27238"
       d="m 872.95172,784.79783 c 0,0 4.52327,31.70208 96.74021,31.20717 86.51597,-0.4643 92.40047,-30.49245 92.40047,-30.49245"
       id="path49" />
  </g>
</svg>
